<svg width="100" height="100" viewBox="0 0 100 100" fill="none" xmlns="http://www.w3.org/2000/svg">
<path d="M76.2248 82.49C77.1745 82.4915 78.0883 82.8534 78.7816 83.5024C79.4748 84.1514 79.8961 85.0394 79.9602 85.9869C80.0243 86.9344 79.7265 87.871 79.1269 88.6075C78.5273 89.344 77.6707 89.8256 76.7298 89.955L76.2248 89.99H23.7498C22.7997 89.9897 21.8851 89.6288 21.1909 88.9801C20.4966 88.3315 20.0745 87.4435 20.0097 86.4956C19.9449 85.5477 20.2424 84.6105 20.842 83.8735C21.4416 83.1365 22.2986 82.6545 23.2398 82.525L23.7498 82.49H76.2248ZM50.0198 10C50.926 10 51.8015 10.3282 52.4845 10.9238C53.1674 11.5195 53.6116 12.3422 53.7348 13.24L53.7698 13.75L53.7648 64.715L68.5948 49.865C69.2294 49.2279 70.0719 48.84 70.9686 48.772C71.8653 48.7041 72.7565 48.9607 73.4798 49.495L73.8998 49.855C74.5362 50.4902 74.9232 51.333 74.9902 52.2297C75.0572 53.1263 74.7998 54.0172 74.2648 54.74L73.9048 55.16L52.6898 76.41L52.3398 76.725L51.8798 77.02L51.6998 77.125L51.2448 77.315L50.6448 77.465L50.2948 77.505L49.9948 77.515C49.7427 77.5154 49.4912 77.4886 49.2448 77.435L48.8348 77.32C48.3594 77.1709 47.9213 76.922 47.5498 76.59L26.0998 55.165C25.4271 54.4967 25.0326 53.5984 24.9956 52.6509C24.9586 51.7034 25.2819 50.7771 25.9005 50.0584C26.519 49.3397 27.3869 48.882 28.3293 48.7775C29.2718 48.673 30.2188 48.9293 30.9798 49.495L31.3998 49.86L46.2648 64.695V13.75C46.2648 12.7554 46.6599 11.8016 47.3632 11.0983C48.0664 10.3951 49.0253 10 50.0198 10Z" fill="#9CA3AF"/>
</svg>
